<svg xmlns="http://www.w3.org/2000/svg" viewBox="0 0 33 33" style="enable-background:new 0 0 33 33" xml:space="preserve"><circle cx="16.5" cy="16.5" r="16.5" style="fill:#ff060a"/><path d="M26.5 14.1c-.9-.9-2.2-2.1-3.2-3.1h-.1c-.1-.1-.2-.2-.3-.2-2.5-.4-14.1-2.6-14.4-2.6-.1 0-.1 0-.2.1h-.1c0 .1 0 .2-.1.3v.2c1.3 3.6 6.4 15.5 7.5 18.3.1.2.2.5.4.6h.1c.1 0 .6-.6.6-.6s8.8-10.7 9.7-11.9c.1-.2.2-.3.3-.5.1-.2 0-.4-.2-.6zm-7.6 1.2 3.8-3.1 2.2 2-6 1.1zm-1.4-.2L11 9.8l10.5 1.9-4 3.4zm.6 1.4 6.6-1.1-7.6 9.2 1-8.1zm-8-6.2 6.8 5.8-1 8.5-5.8-14.3z" style="fill:#fff"/></svg>